<svg xmlns="http://www.w3.org/2000/svg" width="144.871" height="24.004" viewBox="0 0 513 85">
  <defs>
    <style>
      .cls-1 {
        fill: #137a3a;
        fill-rule: evenodd;
      }
    </style>
  </defs>
  <path id="颜色填充_1" data-name="颜色填充 1" class="cls-1" d="M31.253,2a30.8,30.8,0,0,1,7.91.735C50.578,5.578,60.28,15.085,60.986,28.425l-0.124.041A10.027,10.027,0,0,1,58.584,26.3L58.17,24.055a25.056,25.056,0,0,0-1.242-3.594,3.131,3.131,0,0,0-.5-1.062l-3.189.245a0.293,0.293,0,0,1-.083.286,2.611,2.611,0,0,1-1.325.531l-0.29-.735-7.62.409c0.008,1.208.872,4.57,0.331,5.391l-0.29.163-1.077-.572a30.661,30.661,0,0,0-.58-4.942l-3.893.041-0.828-1.348,0.041-.082c1.1-.057,3.583.177,4.431-0.2-0.3-2.415-1.34-6.716-2.4-8.454l-6.419.245c0.012,0.782.122,4.938-.166,5.146l-1.242.449-0.083-.123q-0.042-2.757-.083-5.514l-6.336-.163c-0.493.375-.665,1.563-0.87,2.206-0.472,1.479-.849,3.009-1.242,4.656a5.863,5.863,0,0,0-.29,1.634,50.481,50.481,0,0,1,5.673.2,4.412,4.412,0,0,1-1.574,1.389c-0.781.2-4.02-.412-4.39,0.041-0.322.76-.065,1.975-0.5,2.614l-1.367,1.062-0.124-.082,0.373-3.8-7.578-.368-0.207.245-1.574.122V19.6l-3.189-.2A30.005,30.005,0,0,0,6.986,23.32l-0.58,2.655a9.112,9.112,0,0,1-2.319,2.491L4,28.425a22.342,22.342,0,0,1,2.153-9.23A28.021,28.021,0,0,1,22.142,3.838a33.027,33.027,0,0,1,5.715-1.511ZM31.128,4.124l-2.4.245c-0.652.237-2.586,3.41-2.774,4.248a27.55,27.55,0,0,0,5.756.163c0.009-.966.209-4.021-0.083-4.656h-0.5Zm2.153,0q-0.021,2.348-.041,4.7A25.382,25.382,0,0,0,39,8.617c-0.183-.862-2.1-4-2.775-4.248ZM25.994,4.9c-1.349.672-2.981,0.726-4.224,1.47a9.765,9.765,0,0,0-1.822,1.715l0.041,0.082c0.878,0.116,3.533.609,4.265,0.286a21.687,21.687,0,0,1,1.9-3.512Zm12.837,0c0.165,1.017,1.6,2.39,1.9,3.635L45,8.167l0.041-.082A11.2,11.2,0,0,0,38.831,4.9Zm-22.2,4.452c-2.876,2.523-5.578,4.891-7.371,8.5L9.3,17.929l2.94,0.163a26.479,26.479,0,0,1,3.106-6.7l1.408-2.042H16.635Zm31.6,0,2.319,3.635c0.931,1.567,1.281,3.534,2.236,5.146a11.318,11.318,0,0,0,2.9-.286,19.321,19.321,0,0,0-5.218-6.7A8.894,8.894,0,0,0,48.231,9.352ZM35.59,61c0.91,0,1.1.693,0.952,1.588a1.332,1.332,0,0,0-.061.57,2.021,2.021,0,0,0,1.155.875,1.205,1.205,0,0,0,.709.142c0.34-.067,1.356-0.415,1.378-0.774-0.225-.618-0.93-2.091.527-1.751l0.507,0.122a0.7,0.7,0,0,1,.385.407c0.321,0.747-.5,1.075-0.81,1.4,0.023,0.616,1.1,1.015.993,1.71a1.854,1.854,0,0,1-1.54.285,5.77,5.77,0,0,0-2.836.265A1.518,1.518,0,0,0,36.36,67c-0.077.472,0.2,1.073-.162,1.262-0.835.2-.578-0.916-0.729-1.506a2.4,2.4,0,0,0-.77-1.16,1.451,1.451,0,0,0-.79.041l-0.952-.122c-0.585.112-.976,0.445-1.479-0.061,0.006-1.036.819-.822,1.6-1.058a4.236,4.236,0,0,0,2.006-1.12C35.74,62.418,34.251,61.656,35.59,61ZM18.664,9.556a22.258,22.258,0,0,0-3.975,6.657,9.288,9.288,0,0,0-.787,2l0.041,0.041L19.161,18.5a5.284,5.284,0,0,0,2.195,0l0.538-2.655a45.546,45.546,0,0,1,1.656-5.718l-0.083-.123Zm27.373,0-4.638.531a63.8,63.8,0,0,1,2.236,8.455,6.515,6.515,0,0,0,2.195-.041l5.218-.286V18.174c-0.3-1.943-3.487-7.678-4.762-8.618H46.036ZM14.175,61.71c1.147,0.148.877,1.774,1.519,2.28,0.713,0.561,1.445.412,2.492,0.651a2.561,2.561,0,0,1,.831.489L19.6,65.394a1.443,1.443,0,0,1,.446,2.137c-0.165.213-.723,0.846-1.135,0.57-0.439-.294-0.235-1.067-0.506-1.527a1.948,1.948,0,0,0-3.12,0l-0.162.651c-0.324,1.2-.131,2.035.851,2.443a1.694,1.694,0,0,0,.932.163c1.052-.179,1.33-1.367,2.289-1.2a1.007,1.007,0,0,1,.041,1.282A2.23,2.23,0,0,1,17.4,71.4c-0.9.148-1.127-.708-1.965-0.57-0.366.371-.51,1.3-1.3,1.1a3.225,3.225,0,0,1-.284-2.341,2.017,2.017,0,0,0,.162-0.916,1.242,1.242,0,0,0-1.2-1.018,6.923,6.923,0,0,0-1.337,2.361l-0.04.651a2.208,2.208,0,0,0-.142,1.221A2.736,2.736,0,0,0,13.182,73.5a21.927,21.927,0,0,0,2.512.2,4.718,4.718,0,0,0,1.56.041,9.109,9.109,0,0,0,1.661,0c0.78-.319.938-1.185,1.884-1.343,1.472-.246.515,2.43,0.162,2.829-0.9,1.016-3.765.144-5.187,0.142l-2.046.02a4.2,4.2,0,0,1-1.074-.427c-1.451-.619-1.662-0.62-2.249-2.137-0.2-.525.033-1.291-0.162-1.873a1.277,1.277,0,0,0-.486-0.57L9.191,70.3a0.859,0.859,0,0,1-.446-0.957c0.126-.547,1.3-0.632,1.621-1.16a2.44,2.44,0,0,0,.2-1.527,1.252,1.252,0,0,1-.1-0.631,0.908,0.908,0,0,1,1.033-.142c0.551,0.354-.154,1.717,1.216,1.323a7.871,7.871,0,0,0,.891-2.382,1.833,1.833,0,0,0-.446-1.242l-0.02-.529-0.182-.326C12.81,62.111,13.776,61.866,14.175,61.71Zm40.318,0.346c1.065-.006,1.316.825,1.5,1.71l0.081,0.672a2.62,2.62,0,0,0-.081,1.343c0.151,0.493,1.012,1.962.75,2.605-0.361.886-1.338-.436-2.046-0.265a1.082,1.082,0,0,0-.547.427,4.443,4.443,0,0,0-.77,1.181l-0.385,1.69a3.2,3.2,0,0,0-.2,1.343c0.353,0.743,1.835.507,2.593,0.346a2.2,2.2,0,0,0,.689-0.142,1.747,1.747,0,0,0,.547-0.713c0.285-.7-0.241-1.893-0.061-2.666l0.122-.1a1.245,1.245,0,0,1,.871.977l0.425,1.3,0.142,0.611a2.055,2.055,0,0,0,2.391.672c0.89-.483.771-2.213,0.831-3.582l0.081-1.2C61.3,67.712,60.9,67.314,60.794,66.7c-0.231-1.369,1.444-.968,1.844-0.448a5,5,0,0,1,.284,2.911l-0.081.957c0.2,1.262.054,3.879-.507,4.641a1.724,1.724,0,0,1-.993.489,1.487,1.487,0,0,1-.648.122c-0.883-.149-1.124-1.012-2.35-0.794-0.43.077-.718,0.292-1.114,0.366-0.544.1-.989-0.218-1.54-0.081l-0.628.265-2.107.061c-0.91-.15-1.688-0.4-2.533-0.59-0.948-.219-0.949.582-1.6,0.733l-0.75-.061a1.25,1.25,0,0,1-.588-0.061A2.757,2.757,0,0,1,47,73.883c-0.158-.589-0.134-1.291-0.243-1.995q0.01-.326.02-0.651l-0.061-1.262a10.819,10.819,0,0,0,.243-1.588l-0.162-.549a1.3,1.3,0,0,1,.1-0.59c0.147-.76.075-1.5,0.81-1.649a1,1,0,0,1,1.2,1.323c-0.242,1.463-.854,2.969-0.567,4.763a5.941,5.941,0,0,0,.142,1.343,3.021,3.021,0,0,0,1.5.448l0.405-.142a5.132,5.132,0,0,0,1.074-.163c0.419-.282.33-2.178,0.486-2.809a10,10,0,0,1,.729-1.689l0.324-1.018c0.133-.318.379-0.581,0.507-0.875a7.567,7.567,0,0,0,.284-1.2l-0.1-.753a5.8,5.8,0,0,1,.122-2.341A1.292,1.292,0,0,1,54.493,62.056Zm-47.348.712c1.308-.011.494,2.011,0.871,2.952,0.244,0.608,1.548.214,1.7,0.875,0.139,0.6-.664.825-0.952,1.038a2.683,2.683,0,0,0-.891,1.73c-0.118.5-.013,1.235-0.588,1.282l-0.2-.1a7.591,7.591,0,0,0-.527-1.913A5.471,5.471,0,0,0,5.2,67.857a2.06,2.06,0,0,1-.871-0.326,0.73,0.73,0,0,1-.3-0.733c0.175-.35.713-0.12,1.135-0.183a1.444,1.444,0,0,0,1.114-.509c0.486-.629-0.036-1.049.122-1.893A1.971,1.971,0,0,1,7.145,62.769Zm19.673,0.366a11.336,11.336,0,0,1,2.9.55c0.54,0.111,1.424.236,0.973,0.9l-0.608.224-0.932.142a1.775,1.775,0,0,0-.628,2.2c0.34,0.439,1.354.214,1.641,0.692,0.587,0.977-1.112,1.121-1.56,1.445-0.3.217-.234,0.766-0.709,0.814-0.291-.2-0.359-0.6-0.648-0.794a2.7,2.7,0,0,0-.932-0.081,1.721,1.721,0,0,1-1.155-.59,0.545,0.545,0,0,1-.02-0.57c0.485-.807,2.162-0.492,2.391-1.567,0.349-1.64-1.908-1.224-2.451-2.035-0.39-.581.714-1.122,1.114-1.242Zm6.216-45.492h0.124a11.141,11.141,0,0,1,3.893,4.574l1.739,3.594,3.271,1.225V27.2l-2.65,2-4.845,2.573a5.654,5.654,0,0,0-1.739,1.062L25.994,42.68,16.179,52.89H16.138c-0.98-.854-2.054-1.648-3.064-2.451-2.564-2.035-4.445-5.145-6-8.169-0.644-1.248-1.81-3.464-1.863-5.105l3.561-2.042,5.176-2.9,9.318-7.638,5.052-2.655Zm6.69,49.4c0.628-.018,1.436.053,1.236,0.835-0.171.671-1.7,1.611-2.614,1.018S39.306,67.222,39.723,67.043Zm-7.82.142c1.11-.024,1.354.6,1.945,1.079a0.872,0.872,0,0,1,.446.712,0.835,0.835,0,0,1-1.053.448c-0.669-.225-2.133-0.669-1.925-1.629A0.637,0.637,0,0,1,31.9,67.186ZM12.659,21.972c0.6,0.2,1.9,2.139,2.36,2.7a9.615,9.615,0,0,0,2.94,1.43v0.163l-5.176,4.248L4.75,35.042c-0.431-.7-0.5-2.917-0.5-4l2.733-2.328,3.478-4.983Zm40.79,0c1.6,0.779,1.606,2.933,2.526,4.411a13.377,13.377,0,0,0,2.982,3.227L60.7,31.08a25.006,25.006,0,0,1-2.65,10.864c-3.374,7.552-9.927,12.9-18.593,15.234A29.766,29.766,0,0,1,21.48,55.79c-1.126-.47-2.686-0.928-3.479-1.756V53.911L21.77,49.99l5.59-5.718,1.781-2.491L34.483,34.1l6.377-3.39,8.448-6.576a8.269,8.269,0,0,1,1.615-.2ZM35.935,68.753a2.137,2.137,0,0,1,1.256,1.669c-0.038.28-.568,0.683-0.689,1.079a8.138,8.138,0,0,0,.405,2.809c0.161,0.543.238,1.99-.284,2.117-0.483.117-.716-0.523-0.851-0.794-0.6-1.2-.08-3-0.223-4.621C35.477,70.186,35.391,69.055,35.935,68.753Zm2.33,1.73a3.05,3.05,0,0,1,1.722.875l1.6,0.733a2.5,2.5,0,0,1,.709.305,0.887,0.887,0,0,1,.162,1.14,1.912,1.912,0,0,1-1.783.244c-0.885-.279-1.31-1.113-1.986-1.608a1.9,1.9,0,0,1-1.013-1.018C37.568,70.69,38,70.6,38.264,70.483Zm-10.414.285a1.782,1.782,0,0,1,.831.509c0.559,0.223,1.272-.089,1.52.427,0.255,0.492-.593.683-0.871,0.814l-1.682.773-1.114.794a1.015,1.015,0,0,1-.993.061,1.275,1.275,0,0,1-.284-1.588l0.527-.326a4.249,4.249,0,0,1,.446-0.468,8.435,8.435,0,0,0,.81-0.244l0.507-.631ZM33.4,70.85c0.653,0.066.569,0.727,0.365,1.2a5.329,5.329,0,0,1-1.216,1.771l-0.75.326a1.274,1.274,0,0,1-1.3.122,0.731,0.731,0,0,1-.1-0.977l1.621-1.1,0.993-.855A1.136,1.136,0,0,1,33.4,70.85Zm-26.014.692a2,2,0,0,1,.81.387c0.6,0.251,1.194.189,1.357,0.875a0.568,0.568,0,0,1-.061.427,2.175,2.175,0,0,1-1.114.448l-1.074.285-0.79.061c-0.814.163-2.311,0.681-2.431-.57a4.824,4.824,0,0,1,2.208-1.242A12.689,12.689,0,0,0,7.388,71.542Zm27.128,5.8a2.428,2.428,0,0,1,2.553,1.425,2.337,2.337,0,0,1-1.763,3.175,2.372,2.372,0,0,1-2.755-3.114,2.466,2.466,0,0,1,1.357-1.343Zm-23.968.02a2.574,2.574,0,0,1,.851.061l1.9,4.417-0.02.02a2.471,2.471,0,0,1-.952-0.061,1.619,1.619,0,0,0-.446-0.875,6.01,6.01,0,0,0-2.006.061l-0.365.875a2.65,2.65,0,0,1-.891-0.02A3.6,3.6,0,0,1,9.029,80.8c0.328-.778.647-1.537,0.972-2.28A4.227,4.227,0,0,1,10.548,77.363Zm42.486,0a3.054,3.054,0,0,1,.851.041l1.439,3.318a4.664,4.664,0,0,1,.466,1.119l-0.02.02a2.117,2.117,0,0,1-.952-0.082,3.372,3.372,0,0,0-.365-0.834,5.909,5.909,0,0,0-2.006-.02c-0.18.267-.264,0.666-0.446,0.936a2.581,2.581,0,0,1-.871-0.02,5.22,5.22,0,0,1,.587-1.506A17.816,17.816,0,0,1,53.034,77.363Zm-25.69.041a0.733,0.733,0,0,1,.405.061L29.37,80.8a1.63,1.63,0,0,0,.446-0.835,18.134,18.134,0,0,1,1.155-2.544,1.469,1.469,0,0,1,.831.1v1.058a8.55,8.55,0,0,0-.02,2.1,2.841,2.841,0,0,1,0,1.181,2.731,2.731,0,0,1-.912-0.041q0.01-1.241.02-2.483l-0.061.041L29.674,81.9a1.353,1.353,0,0,1-.567,0L27.81,79.3l-0.04.02v2.524a1.607,1.607,0,0,1-.891-0.041,3.751,3.751,0,0,1,.041-1.4c0.144-.966-0.209-1.984-0.041-2.911Zm15.965,0a1.9,1.9,0,0,1,.75.794l2.006,2.361,0.061-.041-0.041-3.013,0.041-.061a2.49,2.49,0,0,1,.871.041q-0.02,1.537-.041,3.074a3.876,3.876,0,0,1-.041,1.3h-0.77l-1.986-2.32a2.169,2.169,0,0,0-.709-0.774q0.01,1.181.02,2.361a2.311,2.311,0,0,1-.041.733A1.711,1.711,0,0,1,42.58,81.8q0.01-.56.02-1.12a12.988,12.988,0,0,0,.02-2.117,2.664,2.664,0,0,1,0-1.1Zm15.317,0a1.869,1.869,0,0,1,.831.855l1.945,2.28h0.061V78.87a3.522,3.522,0,0,1,0-1.425,1.816,1.816,0,0,1,.871.061v1.12q-0.02.926-.041,1.852a3.907,3.907,0,0,1-.02,1.384l-0.77-.02a2.326,2.326,0,0,1-.588-0.672l-1.459-1.69a2.025,2.025,0,0,0-.648-0.712v2.341a2.083,2.083,0,0,1-.02.753,2.6,2.6,0,0,1-.871-0.041q0.03-1.476.061-2.951l-0.041-1.384ZM17.5,81.862a2.326,2.326,0,0,1-1.033-.082l-0.689-1.4a2.5,2.5,0,0,0-1.114-.02,13.935,13.935,0,0,1-.041,1.527,2.854,2.854,0,0,1-.912-0.061q0.03-1.537.061-3.074-0.03-.631-0.061-1.262a4.537,4.537,0,0,1,1.276-.061c1.389,0,2.79.182,2.431,1.791a2.559,2.559,0,0,1-.729.957A7.52,7.52,0,0,1,17.5,81.862Zm0.344-4.437a18.73,18.73,0,0,0,2.533.02,1.587,1.587,0,0,1,.871.041,1.181,1.181,0,0,1-.02.631H19.969v2.626a3.388,3.388,0,0,1-.02,1.12,1.9,1.9,0,0,1-.912-0.061q0.01-.478.02-0.957a11.2,11.2,0,0,0-.041-2.748,4.11,4.11,0,0,1-1.337,0A1.772,1.772,0,0,1,17.842,77.424Zm29.742,0,2.168,0.061a3.006,3.006,0,0,1,1.256-.02V78.1l-1.276.02a11.063,11.063,0,0,0-.02,2.666,3.27,3.27,0,0,1,0,1.079,2.8,2.8,0,0,1-.932-0.041,21.332,21.332,0,0,0,0-3.725l-1.337.02-0.02-.061ZM5.1,77.445a19.229,19.229,0,0,1,3.12.061,2.044,2.044,0,0,1,.061.59c-0.625.215-1.69-.26-2.269,0.061a2.67,2.67,0,0,0-.02,1.058l0.061,0.02c0.627,0.242,1.6-.226,2.148.02a1.039,1.039,0,0,1-.1.672c-0.5.191-1.611-.22-2.127,0.061a3.418,3.418,0,0,0,.041,1.12c0.551,0.377,1.711-.048,2.37.061a1.076,1.076,0,0,1-.162.733l-0.79-.041a12.991,12.991,0,0,1-2.37-.041c-0.12-.94.206-1.96,0.061-2.951A3.676,3.676,0,0,1,5.1,77.445Zm16.634,0a1.937,1.937,0,0,1,.912.061c0.186,0.489-.212,1.29.02,1.73a11.6,11.6,0,0,0,2.492-.02l0.061-.041a6.418,6.418,0,0,1,.02-1.73,2.5,2.5,0,0,1,.891.041c0.033,0.945-.084,1.942-0.04,2.931a4.774,4.774,0,0,1,.02,1.445,2.8,2.8,0,0,1-.932-0.041q0.01-.9.02-1.791l-0.081-.061a8.844,8.844,0,0,0-2.472.041v1.832a1.732,1.732,0,0,1-.932-0.041q0.01-.59.02-1.181a11.691,11.691,0,0,0,0-2.2A2.49,2.49,0,0,1,21.732,77.445Zm16.107,0,0.871,0.02a2.769,2.769,0,0,1,.02.753c0,0.755-.19,2.587.2,2.89a1.681,1.681,0,0,0,.973.183l0.567-.061C41.19,81,40.9,79.072,40.9,78.157a2.208,2.208,0,0,1,.041-0.692,1.89,1.89,0,0,1,.891.02L41.79,78.87a14.367,14.367,0,0,1-.081,2.341,1.042,1.042,0,0,1-.567.57c-0.876.362-2.88,0.287-3.181-.468a11.8,11.8,0,0,1-.1-2.137A5.808,5.808,0,0,1,37.839,77.445Zm18.417,0a2.587,2.587,0,0,1,.912.041l-0.041,2.748a4.626,4.626,0,0,1,.02,1.629l-0.932-.02c-0.116-.9.071-2.011,0.04-2.992l-0.04-1.323Zm-41.209.631c-0.124.046-.309,0.031-0.405,0.081a4.009,4.009,0,0,0-.02,1.466l0.041,0.061c0.643,0.018,1.506.127,1.783-.285a0.912,0.912,0,0,0,.081-0.611C16.393,78.113,15.849,78.055,15.046,78.076ZM34.577,78.1a1.732,1.732,0,0,0-1.256,1.119A1.577,1.577,0,1,0,34.577,78.1ZM53.4,78.4l-0.689,1.71,0.061,0.041a2.642,2.642,0,0,0,1.358,0l0.02-.041A6.58,6.58,0,0,0,53.4,78.4Zm-42.506.02a5.362,5.362,0,0,0-.628,1.751,2.289,2.289,0,0,0,1.4-.081A7.707,7.707,0,0,0,10.893,78.422Z"/>
  <path id="颜色填充_2" data-name="颜色填充 2" class="cls-1" d="M78.345,50.643l3.374-5.383q2.224-4.307,2.656-5.24a57.617,57.617,0,0,0,3.374-10.049H85.236q-2.656.145-6.173,0.359,0.286-2.512.287-3.445-0.072-1.22-.287-3.374,3.661,0.36,6.245.359h3.445V17.481q-0.072-4.665-.5-10.049a32.211,32.211,0,0,0,3.517.287q1.363-.071,3.517-0.287a21.885,21.885,0,0,0-.215,2.943q-0.288,4.021-.287,13.494h2.225q2.369-.071,6.245-0.359a24.332,24.332,0,0,0-.359,3.374q0.07,1.221.359,3.445-4.02-.358-6.173-0.359h-2.3v7.9a21.437,21.437,0,0,0,4.163-2.153l5.312,10.982a35.165,35.165,0,0,0-5.742,2.369l-1.148-3.517-2.584-5.455V65.644l0.144,4.665,0.359,6.173q-2.8-.288-3.517-0.287-0.934.071-3.517,0.287,0.5-5.671.5-10.838V42.6L84.3,52.868q-1.221,2.3-3.445,6.6a27.573,27.573,0,0,0-4.235-6.6q0.861-1.147,1.723-2.225h0ZM99.3,69.52a34.392,34.392,0,0,0,12.2-4.091,17.939,17.939,0,0,0,5.455-5.312H107.63q-1.435,0-8.111.431a30.764,30.764,0,0,0,.287-3.158q-0.072-1.077-.287-3.3,5.311,0.431,8.757.431h10.408a24.842,24.842,0,0,0,.431-4.235h-7.25q-2.728.145-6.244,0.359,0.071-.574.143-1,0.216-2.87.216-16.509-0.074-3.373-.359-6.6a2.712,2.712,0,0,1,.646.072,67.375,67.375,0,0,0,6.962.287V21.429h-3.876q-2.728.145-7.68,0.431,0.215-2.3.215-3.158,0-1.077-.215-3.445,4.523,0.431,7.536.431h4.02V14.395a50.494,50.494,0,0,0-.431-6.675q2.44,0.288,3.3.287,1-.071,3.374-0.287a56.3,56.3,0,0,0-.431,6.675v1.292h7.68q-0.072-3.661-.359-7.967,2.584,0.288,3.446.287,1-.071,3.158-0.287-0.36,5.6-.359,7.967h5.6q3.446,0,8.4-.431-0.288,2.441-.287,3.3,0.071,0.934.287,3.3-4.882-.431-8.111-0.431h-5.886v5.455q3.446-.071,8.183-0.359-0.36,4.021-.359,6.6V43.752q0.142,2.8.359,6.891-3.876-.358-6.891-0.359h-8.47a8.745,8.745,0,0,0-.143,1.364q-0.145,1.364-.431,2.871H136.27q4.018,0,9.833-.431-0.288,2.441-.287,3.3,0.071,0.934.287,3.158a23.009,23.009,0,0,0-2.943-.215q-3.3-.215-14.929-0.215a16.344,16.344,0,0,0,7.68,6.675,27.644,27.644,0,0,0,9.187,2.584q1.435,0.071,2.943.287a15.334,15.334,0,0,0-3.158,2.656,21.582,21.582,0,0,0-2.584,4.235,12.683,12.683,0,0,0-1.938-.79q-0.933-.36-4.02-1.723l-4.306-2.225a19.7,19.7,0,0,1-5.886-5.383,31.068,31.068,0,0,1-3.158-5.527,19.331,19.331,0,0,1-6.317,7.9A53.8,53.8,0,0,1,103.9,75.334q-1.149.431-2.225,0.933a32.663,32.663,0,0,0-1.723-2.943,47.118,47.118,0,0,0-3.3-3.517A23.536,23.536,0,0,1,99.3,69.52h0Zm34.6-24.261v-4.45H112.009v4.45H133.9Zm0-9.116V32.2H112.009v3.948H133.9Zm-7.178-9.259V21.429h-7.68v5.455h7.68Zm43.624,42.708a25.174,25.174,0,0,0,6.388-8.542q2.655-5.1,3.3-13.566l0.287-3.087q0.214-3.3.215-19.021,0-3.015-.43-11.628l6.316,0.144q2.943,0,5.742-.215,3.23-.286,7.321-0.79a82.685,82.685,0,0,0,9.332-1.651,21.316,21.316,0,0,1,2.512-.574,30.742,30.742,0,0,0,1.435,3.015l2.513,4.378q-5.169.072-7.968,0.144L187,19.491v9.116h18.662q3.516-.071,7.465-0.359a185.877,185.877,0,0,1-3.66,18.806A84.6,84.6,0,0,1,204.3,60.548q4.307,2.8,6.029,3.661a15.923,15.923,0,0,0,3.876,1.507,26.716,26.716,0,0,0,4.019,1.22q1,0.215,2.082.5L217,71.817a31.8,31.8,0,0,0-2.01,3.589,20.678,20.678,0,0,0-2.225-1.22,95.6,95.6,0,0,1-12.417-8.972A94.248,94.248,0,0,1,187.071,76.2q-1.149.717-2.225,1.435a17.233,17.233,0,0,0-2.01-3.086,44.282,44.282,0,0,0-3.948-3.3,20.906,20.906,0,0,1,2.3-.718,41.134,41.134,0,0,0,15.073-9.905,13.045,13.045,0,0,1-.933-1.651,31.349,31.349,0,0,1-2.009-4.02q-2.154-4.808-2.8-6.819l-2.44-8.326a52.138,52.138,0,0,0,6.388-1.292l0.215,2.01a32.245,32.245,0,0,0,1.795,7.25,64.165,64.165,0,0,0,3.445,7.393,56.49,56.49,0,0,0,3.015-8.757,100.3,100.3,0,0,0,2.01-11.987H186.712v3.087l-0.646,11.915q-0.288,2.8-.718,5.024-0.5,2.226-1.005,4.378a43.47,43.47,0,0,1-4.306,9.259c-0.336.526-.574,0.933-0.718,1.22q-0.43.646-.933,1.292a58.328,58.328,0,0,0-4.091,5.671,21.216,21.216,0,0,0-6.6-4.379q1.291-1.221,2.656-2.3h0ZM150.464,51.935a46.045,46.045,0,0,0,7.106-12.274,96.94,96.94,0,0,0,3.159-9.546h-3.3q-2.944.145-6.46,0.359a32.765,32.765,0,0,0,.287-3.3q-0.072-1.147-.287-3.517h0.287a99.405,99.405,0,0,0,9.977.359v-4.02q-0.072-2.153-.5-11.2,2.583,0.215,3.66.215,1.435,0,3.589-.215a40.2,40.2,0,0,0-.359,4.881Q167.4,14.9,167.4,24.013h3.373q2.513-.071,6.173-0.359-0.286,2.441-.287,3.374,0.07,1.006.287,3.445-3.66-.358-6.675-0.359H167.4v9.331a24.925,24.925,0,0,0,3.445-1.938l7.034,11.2a66.071,66.071,0,0,0-6.1,3.3q-0.144-.431-1.435-3.661-0.36-.646-2.943-5.383V65.788q-0.072,3.661.359,11.054-2.8-.288-3.446-0.287-0.933.071-3.517,0.287,0.43-6.174.431-11.126V44.183q-1.221,2.872-2.082,4.594-1.149,2.656-3.158,6.316-2.943,5.1-3.373,6.029a37.527,37.527,0,0,0-3.876-7.034Zm76.57-30.577a45.39,45.39,0,0,0,10.12-12.13q0.789-1.292,1.508-2.44a17.991,17.991,0,0,0,3.3,1.292l3.014,0.933a10.671,10.671,0,0,0-1.507,1.938,15.464,15.464,0,0,0-1.938,2.369h8.972q2.727-.071,6.675-0.359a20.6,20.6,0,0,0-.287,2.943q0.071,1.292.287,2.871-3.948-.358-6.747-0.359H247.2l2.441,6.675a31.959,31.959,0,0,0-3.8.646l-2.584.79-1.364-5.886a10.416,10.416,0,0,0-.862-2.225H237.8l-3.8,4.45q-0.791.861-1.507,1.794l-2.3,2.369a17.03,17.03,0,0,0-5.6-3.589,20.135,20.135,0,0,1,2.441-2.082h0Zm4.952,15.576q0.072,2.153.359,4.809a32.449,32.449,0,0,0-3.445-.287l-3.445.287a39.3,39.3,0,0,0,.359-4.665V33.488q-0.073-2.369-.359-5.24,5.31,0.36,8.828.359h20.744q-1.651-3.3-2.512-4.666l2.01-.287q4.737-1.147,4.809-1.148l-4.02-.933c0-.1.024-0.144,0.072-0.144a25.9,25.9,0,0,1,3.445-3.374,43.241,43.241,0,0,0,3.446-4.665,37.435,37.435,0,0,0,2.943-5.168q0.43-1.077.933-2.153a16.252,16.252,0,0,0,2.081.861q3.662,1.006,4.092,1.22a12.829,12.829,0,0,0-1.077,1.579,37.908,37.908,0,0,1-2.512,3.158h14.427q3.015-.071,7.321-0.359-0.215,2.01-.215,3.086a29.307,29.307,0,0,0,.215,3.015q-4.594-.358-7.465-0.359h-6.1l2.512,7.249a15.881,15.881,0,0,0-3.66.574,20.157,20.157,0,0,1-2.943.646l-0.79-5.312q-0.287-1.077-.574-2.153l-0.287-1h-5.886q-0.719.861-1.363,1.723-0.718,1.077-1.364,1.938a10.747,10.747,0,0,0-1.22,1.794c-0.528-.383-1-0.741-1.436-1.077l2.082,5.958h19.667q3.66-.071,7.967-0.359L289.337,36q0.071,2.8.287,6.316-2.3-.215-3.374-0.215-1.507.145-3.517,0.215a36.738,36.738,0,0,0,.359-4.378V34.062H231.986v2.871Zm10.408,39.98a30.283,30.283,0,0,0-3.373-.287q-1.149.071-3.3,0.287,0.358-4.882.359-8.111V45.546q-0.072-3.373-.359-8.111l5.24,0.359,28.065,0.072q2.727,0,8.326-.431a53.9,53.9,0,0,0-.359,5.742v4.45q0.071,2.3.359,5.6a20.653,20.653,0,0,0-2.225-.144q-3.3-.215-32.874-0.215v4.019h29.5q3.086-.071,8.039-0.359a61.242,61.242,0,0,0-.43,6.317v6.819a67.677,67.677,0,0,0,.43,6.891q-2.583-.288-3.66-0.287-0.934.071-3.3,0.287,0.143-2.083.144-4.02H242.251Zm30.578-9.331V61.624H242.251v5.958h30.721Zm-2.082-19.6V42.532H242.251v5.455H270.89Zm35.8-6.388h-2.01q-2.728.145-6.6,0.359a6.936,6.936,0,0,0,.144-1.364q-0.072-3.015-.144-4.809,3.661,0.36,6.532.359h2.082V20.568q-1.868.072-8.972,0.359,0.142-1.363.215-2.512-0.145-1.723-.144-3.445a3.3,3.3,0,0,1-.071-0.646q4.377,0.36,7.177.359h9.547q2.8-.071,6.89-0.359-0.214,2.226-.215,3.3,0.142,1.292.215,3.3-4.02-.358-6.89-0.359h-1.866V36.143h1.937q2.655-.071,5.886-0.359a26.574,26.574,0,0,0-.287,3.086q0.07,0.934.287,3.087-3.59-.358-5.957-0.359H312.5V59.112l2.727-1.077q2.369-1,5.168-2.512l-0.072,2.225Q320.4,59.4,320.9,62.7l-3.159.861q-3.159,1.077-7.68,2.656l-8.613,3.517q-1.507.646-2.871,1.364a76.163,76.163,0,0,0-1.938-7.752,63.924,63.924,0,0,0,8.111-1.866l1.938-.646V41.6Zm11.2,29.572-0.287-3.3q1.077,0.071,2.01.144L338.918,68.3V60.548h-5.025q-4.09.145-9.331,0.359a25.213,25.213,0,0,0,.287-3.158q-0.072-1.077-.287-3.23,5.1,0.36,9.188.359h5.168V47.054h-8.326q-3.015.145-6.532,0.359,0.071-.717.143-1.364,0.216-3.8.216-25.84-0.072-3.588-.359-8.4,3.66,0.36,6.675.359h23.113q3.014-.071,6.46-0.359-0.36,3.948-.359,6.962V40.665q0.142,3.087.359,6.747a63.562,63.562,0,0,0-6.389-.359h-8.972v7.824h5.527q4.307-.071,9.259-0.359-0.072.718-.143,2.01,0.071,2.226.143,4.379-5.382-.358-9.331-0.359h-5.455V68.3h4.092q6.889,0,14.857-.431a23.908,23.908,0,0,0-.215,4.594q0.143,1,.215,1.938-2.3-.215-4.234-0.215-4.594-.215-29.357-0.215-2.584,0-12.7.431,0.286-2.944.287-3.23h0Zm21.031-29.86V32.267h-8.613v9.044h8.613Zm0-14.212V17.912h-8.613V27.1h8.613Zm15,14.212V32.267h-8.972v9.044h8.972Zm0-14.212V17.912h-8.972V27.1h8.972Zm28.264,29.429q-2.3-.215-3.446-0.215-1.149.145-3.517,0.215l0.215-2.081,0.216-26.486q0-2.153-.431-6.46l2.584,0.215q3.446,0.215,21.82.215V20.209q-0.072-1.363-.5-13.064a25.416,25.416,0,0,0,3.8.359q1.435-.071,3.8-0.359a32.245,32.245,0,0,0-.215,3.517q-0.288,3.087-.287,11.269l19.452-.072L430.7,21.5a34.6,34.6,0,0,0-.359,3.661l-0.071,22.754q0.071,1.58.5,8.039-1.149-.143-2.225-0.215a1.939,1.939,0,0,0-.861-0.072,16.877,16.877,0,0,0-2.728.144q-0.646.072-1.723,0.144,0.144-2.369.216-4.737H406.228L406.3,69.161l0.43,7.68q-2.655-.288-3.732-0.287-1.077.071-3.876,0.287l0.287-4.378q0.216-4.451.215-21.246H382.039q0.071,4.379.144,5.311h0Zm17.441-11.054V27.961H382.039V45.475h17.585Zm23.831,0V27.961H406.228V45.475h17.227ZM443.1,57.964a38.281,38.281,0,0,0,4.307-11.915q0.647-2.942,1.077-5.957a37.164,37.164,0,0,0,.43-4.809q0-1.292.072-2.584a33.072,33.072,0,0,0,4.163.933,41.167,41.167,0,0,0,4.092.5,2.81,2.81,0,0,0-.359,1,62.2,62.2,0,0,0-1.579,6.6l-1.579,7.25-2.154,8.4q-0.719,2.369-1.364,4.737a35.738,35.738,0,0,0-3.876-1.364,27.512,27.512,0,0,0-4.306-.861Zm20.026-20.6-0.071-3.015-0.431-6.173a26.827,26.827,0,0,0,3.876.359q1.507-.071,3.948-0.359l-0.431,5.6q-0.144,2.083-.143,3.589L469.59,63.275a9.487,9.487,0,0,0,.5,3.733q0.789,1.292,3.445,1.292l7.609-.072a8.3,8.3,0,0,0,3.588-.79,7.793,7.793,0,0,0,1.867-3.086,19.632,19.632,0,0,0,.574-4.235c-0.1-1.292.072-1.938,0.5-1.938a0.856,0.856,0,0,1,.5.5q1.65,2.584,6.819,3.086l-0.431,1.579a43.553,43.553,0,0,1-2.01,5.814q-2.152,3.947-4.809,4.809a21.876,21.876,0,0,1-6.532.789l-10.12-.072a20.964,20.964,0,0,1-5.958-1,4.335,4.335,0,0,1-2.081-3.733,35.954,35.954,0,0,1-.144-3.732Zm5.384-23.543q4.521-2.3,6.962-3.876l10.91,15.073q-2.8,1.221-3.732,1.723l-4.02,2.369q-0.717-1.363-1.22-2.512a58.369,58.369,0,0,0-7.465-11.054q-0.791-.861-1.435-1.723h0Zm22.969,22.969q-0.576-.932-1.077-1.651a40.419,40.419,0,0,0,6.6-3.589l13.208,22.107a36.39,36.39,0,0,0-7.824,3.948L501.1,54.016q-1.006-2.512-4.02-8.111l-2.8-4.809q-1.437-2.369-2.8-4.307h0Z"/>
</svg>
